<?xml version="1.0" encoding="UTF-8" standalone="no"?>
<!-- Created with Inkscape (http://www.inkscape.org/) -->

<svg
   width="79.639587mm"
   height="42.862499mm"
   viewBox="0 0 79.639587 42.862499"
   version="1.1"
   id="svg5"
   xml:space="preserve"
   inkscape:version="1.2 (56b05e47e7, 2022-06-09, custom)"
   sodipodi:docname="crypto"
   inkscape:export-filename="crypto.svg"
   inkscape:export-xdpi="96"
   inkscape:export-ydpi="96"
   xmlns:inkscape="http://www.inkscape.org/namespaces/inkscape"
   xmlns:sodipodi="http://sodipodi.sourceforge.net/DTD/sodipodi-0.dtd"
   xmlns="http://www.w3.org/2000/svg"
   xmlns:svg="http://www.w3.org/2000/svg"><sodipodi:namedview
     id="namedview7"
     pagecolor="#ffffff"
     bordercolor="#666666"
     borderopacity="1.0"
     inkscape:showpageshadow="2"
     inkscape:pageopacity="0.0"
     inkscape:pagecheckerboard="0"
     inkscape:deskcolor="#d1d1d1"
     inkscape:document-units="mm"
     showgrid="false"
     inkscape:zoom="1.4142136"
     inkscape:cx="-21.92031"
     inkscape:cy="141.0678"
     inkscape:window-width="1920"
     inkscape:window-height="1016"
     inkscape:window-x="0"
     inkscape:window-y="0"
     inkscape:window-maximized="1"
     inkscape:current-layer="layer1" /><defs
     id="defs2" /><g
     inkscape:label="Layer 1"
     inkscape:groupmode="layer"
     id="layer1"
     transform="translate(-61.333723,-140.97331)"><path
       id="path147"
       style="fill:#000000;fill-opacity:1;stroke-width:0.264583"
       d="m 61.333723,140.97331 v 10.45104 10.45104 h 3.571875 c 2.998581,0 3.571875,0.0637 3.571875,0.39688 0,0.33318 -0.573294,0.39687 -3.571875,0.39687 h -3.571875 v 3.57188 3.57187 h 3.571875 3.571875 v 3.30729 3.30729 h -3.571875 -3.571875 v 3.57188 3.57187 h 6.879167 6.879166 v -10.84791 -10.84792 h 5.953125 5.953125 V 151.42435 140.97331 H 74.166015 Z m 26.722917,0 v 10.45104 10.45104 h 3.571875 3.571875 v -1.32292 -1.32291 h 0.926041 0.926042 v 1.32291 1.32292 h 3.439587 3.43958 v -10.45104 -10.45104 h -7.9375 z m 16.93334,0 v 10.45104 10.45104 h 3.43958 3.43958 v -3.175 -3.175 h 2.38125 2.38125 v -3.43958 -3.43959 h -2.38125 -2.38125 v -3.83645 -3.83646 h -3.43958 z m 7.9375,0 v 3.43958 3.43958 h 2.24895 2.24896 v 7.01146 7.01146 h 3.43959 3.43958 v -7.01146 -7.01146 h 2.24896 2.24896 v -3.43958 -3.43958 h -7.9375 z m 21.177,0 -0.0713,5.62239 -0.0718,5.6224 h -0.92604 -0.92604 l -0.0775,-1.91823 -0.0775,-1.91823 h -3.42821 -3.4277 v 5.41776 5.41724 l 4.43177,0.0729 4.43177,0.0724 0.0806,1.25677 0.0806,1.25677 h 3.42511 3.4246 V 151.42444 140.9734 h -3.4339 z m -38.904607,6.87916 h 0.936894 0.936893 l -0.077,2.18282 -0.077,2.18281 -0.859896,0.0827 -0.859896,0.0832 v -2.26601 z m -27.780733,0.26459 h 6.746875 6.746875 v 3.30729 3.30729 H 74.166015 67.41914 v -3.30729 z m 8.466666,14.55208 v 10.58333 10.58334 h 3.571875 3.571875 v -6.35 -6.35 h 3.439584 3.439583 v -3.43959 -3.43958 H 86.46914 83.029556 v -0.79375 -0.79375 h -3.571875 z m 16.943669,0 -0.07131,5.75469 -0.07131,5.75469 -0.859896,0.0827 c -0.85688,0.0826 -0.859896,0.0783 -0.859896,-1.12448 v -1.20716 h -3.571875 -3.571875 v 4.63021 4.6302 h 4.497917 4.497917 v 1.19063 1.19062 h 3.439583 3.439583 V 173.1202 162.66916 h -3.434415 z m 7.662585,0 v 10.45104 10.45104 h 3.42511 3.42512 l 0.0806,-1.25677 0.0806,-1.25677 4.43177,-0.0723 4.43177,-0.0729 v -5.27461 -5.2741 l -2.18281,-0.077 -2.18282,-0.077 -0.0739,-3.77032 -0.0734,-3.77031 h -5.68079 z m 12.17083,0 v 3.57188 3.57187 h 2.24896 2.24896 v 7.01146 7.01146 h 3.43958 3.43959 v -7.01146 -7.01146 h 2.24895 2.24896 v -3.57187 -3.57188 h -7.9375 z m 16.66875,0 v 3.83646 3.83646 h -2.11666 -2.11667 v 6.61458 6.61458 h 7.9375 7.9375 v -10.45104 -10.45104 h -5.82083 z m 3.69642,5.29994 c 2.12031,0.0122 3.44226,1.259 3.44526,3.25044 0.002,1.23812 -0.34608,1.96437 -1.35443,2.8267 -0.75861,0.6487 -0.76786,0.68954 -0.49765,2.11667 0.15154,0.80036 0.34106,1.66357 0.42116,1.91823 0.13046,0.41472 -0.0771,0.46302 -1.98902,0.46302 -2.43146,0 -2.39409,0.0491 -1.72031,-2.26859 l 0.41393,-1.42421 -1.07539,-1.02319 c -0.96017,-0.9134 -1.07538,-1.15625 -1.07538,-2.26756 0,-2.42891 1.12315,-3.60481 3.43183,-3.59151 z m -25.65683,1.84381 h 1.05833 1.05833 v 2.11667 2.11666 h -0.88212 c -0.48497,0 -0.96133,-0.0792 -1.05833,-0.17621 -0.097,-0.097 -0.17621,-1.04952 -0.17621,-2.11667 z" /></g></svg>
