<?xml version="1.0" encoding="UTF-8"?>
<!-- Created with Inkscape (http://www.inkscape.org/) -->
<svg width="79.64mm" height="42.862mm" version="1.1" viewBox="0 0 79.64 42.862" xml:space="preserve" xmlns="http://www.w3.org/2000/svg"><g transform="translate(-61.334 -140.97)"><path d="m61.334 140.97v20.902h3.5719c2.9986 0 3.5719 0.0637 3.5719 0.39688s-0.57329 0.39687-3.5719 0.39687h-3.5719v7.1438h7.1438v6.6146h-7.1438v7.1438h13.758v-21.696h11.906v-20.902h-12.832zm26.723 0v20.902h7.1438v-2.6458h1.8521v2.6458h6.8792v-20.902h-7.9375zm16.933 0v20.902h6.8792v-6.35h4.7625v-6.8792h-4.7625v-7.6729h-3.4396zm7.9375 0v6.8792h4.4979v14.023h6.8792v-14.023h4.4979v-6.8792h-7.9375zm21.177 0-0.0713 5.6224-0.0718 5.6224h-1.8521l-0.155-3.8365h-6.8559v10.835l4.4318 0.0729 4.4318 0.0724 0.1612 2.5135h6.8497v-20.902h-3.4339zm-38.905 6.8792h1.8738l-0.077 2.1828-0.077 2.1828-0.8599 0.0827-0.8599 0.0832v-2.266zm-27.781 0.26459h13.494v6.6146h-13.494v-3.3073zm8.4667 14.552v21.167h7.1438v-12.7h6.8792v-6.8792h-6.8792v-1.5875h-3.5719zm16.944 0-0.14262 11.509-0.8599 0.0827c-0.85688 0.0826-0.8599 0.0783-0.8599-1.1245v-1.2072h-7.1438v9.2604h8.9958v2.3812h6.8792v-20.902h-3.4344zm7.6626 0v20.902h6.8502l0.1612-2.5135 4.4318-0.0723 4.4318-0.0729v-10.549l-4.3656-0.154-0.0739-3.7703-0.0734-3.7703h-5.6808zm12.171 0v7.1438h4.4979v14.023h6.8792v-14.023h4.4979v-7.1438h-7.9375zm16.669 0v7.6729h-4.2333v13.229h15.875v-20.902h-5.8208zm3.6964 5.2999c2.1203 0.0122 3.4423 1.259 3.4453 3.2504 2e-3 1.2381-0.34608 1.9644-1.3544 2.8267-0.75861 0.6487-0.76786 0.68954-0.49765 2.1167 0.15154 0.80036 0.34106 1.6636 0.42116 1.9182 0.13046 0.41472-0.0771 0.46302-1.989 0.46302-2.4315 0-2.3941 0.0491-1.7203-2.2686l0.41393-1.4242-1.0754-1.0232c-0.96017-0.9134-1.0754-1.1562-1.0754-2.2676 0-2.4289 1.1232-3.6048 3.4318-3.5915zm-25.657 1.8438h2.1167v4.2333h-0.88212c-0.48497 0-0.96133-0.0792-1.0583-0.17621-0.097-0.097-0.17621-1.0495-0.17621-2.1167z" fill="#f9f9f9" opacity=".99" stroke-width=".26458"/></g></svg>
